# xmcd
#
# Track frame offsets:
#	150
#	15005
#	29307
#
# Disc length: 536 seconds
#
# Revision: 2
# Processed by: cddbd v1.5.2PL0 Copyright (c) Steve Scherf et al.
# Submitted via: EasyCDDAExtractor 16.0.6.1
#
DISCID=10021603
DTITLE=Kathleen Leinemann - Without you
DYEAR=2002
DGENRE=Vocal
TTITLE0=Without you
TTITLE1=Take me home country roads
TTITLE2=It's so easy
EXTD=YEAR: 2002
EXTT0=
EXTT1=
EXTT2=
PLAYORDER=
